<?xml version="1.0" encoding="UTF-8"?>
<!DOCTYPE svg PUBLIC "-//W3C//DTD SVG 1.1//EN" "http://www.w3.org/Graphics/SVG/1.1/DTD/svg11.dtd">
<!-- Creator: CorelDRAW X7 -->
<svg xmlns="http://www.w3.org/2000/svg" xml:space="preserve" width="3in" height="3in" version="1.1" style="shape-rendering:geometricPrecision; text-rendering:geometricPrecision; image-rendering:optimizeQuality; fill-rule:evenodd; clip-rule:evenodd"
viewBox="0 0 3000 3000"
 xmlns:xlink="http://www.w3.org/1999/xlink">
 <defs>
  <style type="text/css">
   <![CDATA[
    .fil0 {fill:#1C3B63}
   ]]>
  </style>
 </defs>
 <g id="Layer_x0020_1">
  <metadata id="CorelCorpID_0Corel-Layer"/>
  <g id="_1499161087840">
   <path class="fil0" d="M2033 1272c-44,84 -127,141 -222,141 -142,0 -256,-124 -256,-278 0,-154 114,-279 256,-279 94,0 177,56 221,140l221 -102c-86,-154 -252,-257 -443,-257 -280,0 -507,224 -507,500 0,276 227,500 507,500 193,0 360,-106 446,-262l-223 -103zm-1189 -194l-8 0 -436 0 0 540 252 0 0 0 4 0 0 -330 125 0 162 330 286 0 -200 -355c109,-43 180,-145 191,-260 2,-11 2,-23 2,-34 0,-166 -125,-315 -296,-314l-526 -1 0 209 442 0 30 0c57,1 91,55 91,107 0,59 -38,107 -87,108 -11,0 -21,0 -32,0zm1499 541l255 0 0 -965 -255 0 0 965z"/>
   <path class="fil0" d="M400 2018l37 -5c1,7 4,12 9,16 5,3 11,5 20,5 9,0 16,-1 21,-5 3,-2 5,-6 5,-10 0,-2 -1,-5 -3,-6 -1,-2 -5,-4 -12,-5 -29,-7 -48,-13 -56,-18 -10,-8 -16,-18 -16,-31 0,-12 5,-22 14,-30 10,-8 24,-12 44,-12 19,0 33,3 42,9 9,6 15,15 19,27l-34 7c-2,-6 -5,-10 -9,-13 -4,-3 -10,-4 -17,-4 -10,0 -17,1 -21,4 -3,2 -4,4 -4,7 0,3 1,5 3,7 4,2 15,6 34,10 20,5 33,10 41,16 8,7 12,16 12,27 0,13 -6,24 -16,33 -11,9 -26,13 -47,13 -19,0 -34,-3 -44,-11 -11,-7 -19,-18 -22,-31zm2162 39l0 -190 37 0 0 190 -37 0zm-231 -95l-33 -6c4,-13 10,-23 19,-30 9,-6 23,-9 40,-9 17,0 29,2 37,5 8,4 13,9 16,15 4,6 5,17 5,33l0 42c0,12 0,21 1,27 2,5 4,12 7,18l-36 0c-1,-2 -2,-6 -4,-11 0,-2 -1,-3 -1,-4 -6,6 -13,11 -20,14 -7,3 -14,4 -22,4 -14,0 -26,-3 -34,-11 -8,-8 -12,-17 -12,-29 0,-8 2,-15 6,-21 3,-6 9,-11 15,-14 7,-3 17,-6 29,-8 17,-3 29,-6 35,-9l0 -4c0,-7 -1,-12 -5,-15 -3,-3 -10,-5 -19,-5 -7,0 -12,2 -15,4 -4,3 -7,7 -9,14zm48 29c-4,2 -12,4 -22,6 -10,2 -16,4 -19,6 -5,4 -8,8 -8,13 0,5 2,10 6,13 4,4 9,6 15,6 6,0 12,-2 18,-7 5,-3 8,-7 9,-12 1,-3 1,-9 1,-17l0 -8zm-255 66l-36 0 0 -137 33 0 0 19c6,-9 11,-15 16,-18 5,-3 10,-4 16,-4 8,0 16,2 24,7l-11 31c-7,-4 -12,-6 -18,-6 -5,0 -9,2 -13,4 -3,3 -6,8 -8,16 -2,7 -3,22 -3,46l0 42zm-217 0l0 -21c-5,8 -11,14 -20,18 -8,4 -16,6 -25,6 -10,0 -18,-2 -25,-6 -8,-4 -13,-9 -16,-17 -4,-7 -5,-17 -5,-30l0 -87 36 0 0 63c0,19 1,31 2,35 1,5 4,8 7,11 4,2 9,4 14,4 6,0 12,-2 17,-5 5,-4 8,-8 10,-13 2,-5 3,-18 3,-37l0 -58 36 0 0 137 -34 0zm-227 -137l0 28 -25 0 0 56c0,11 0,18 1,20 0,2 1,3 3,4 1,2 4,2 6,2 3,0 8,-1 15,-3l3 28c-9,4 -18,5 -29,5 -7,0 -12,-1 -18,-3 -5,-2 -9,-5 -11,-8 -3,-4 -4,-9 -5,-15 -1,-4 -1,-12 -1,-25l0 -61 -17 0 0 -28 17 0 0 -28 36 -21 0 49 25 0zm-202 40l-36 7c-1,-7 -4,-13 -8,-16 -4,-4 -10,-6 -16,-6 -10,0 -17,3 -22,10 -6,6 -8,16 -8,31 0,16 3,28 8,35 5,6 13,10 22,10 7,0 13,-2 17,-6 4,-4 7,-11 9,-20l36 6c-4,16 -11,29 -21,37 -11,8 -25,12 -43,12 -20,0 -36,-6 -48,-19 -12,-12 -18,-30 -18,-52 0,-23 6,-41 18,-53 12,-13 29,-19 49,-19 17,0 30,3 40,10 10,8 17,19 21,33zm-302 97l0 -21c-5,8 -11,14 -20,18 -8,4 -16,6 -25,6 -10,0 -18,-2 -25,-6 -8,-4 -13,-9 -16,-17 -4,-7 -5,-17 -5,-30l0 -87 36 0 0 63c0,19 1,31 2,35 1,5 4,8 7,11 4,2 9,4 14,4 6,0 12,-2 17,-5 5,-4 8,-8 10,-13 2,-5 3,-18 3,-37l0 -58 36 0 0 137 -34 0zm-270 0l-37 0 0 -137 34 0 0 19c6,-9 11,-15 16,-18 4,-3 10,-4 15,-4 9,0 17,2 24,7l-11 31c-6,-4 -12,-6 -17,-6 -5,0 -9,2 -13,4 -3,3 -6,8 -8,16 -2,7 -3,22 -3,46l0 42zm-172 -137l0 28 -25 0 0 56c0,11 1,18 1,20 1,2 2,3 3,4 2,2 4,2 7,2 3,0 8,-1 14,-3l3 28c-8,4 -18,5 -28,5 -7,0 -13,-1 -18,-3 -5,-2 -9,-5 -12,-8 -2,-4 -4,-9 -5,-15 0,-4 -1,-12 -1,-25l0 -61 -16 0 0 -28 16 0 0 -28 36 -21 0 49 25 0z"/>
   <path class="fil0" d="M538 2174l0 37 -93 0 0 39 84 0 0 35 -84 0 0 39 96 0 0 37 -138 0 0 -187 135 0zm2020 92l42 0 0 66c-19,21 -44,31 -77,31 -28,0 -51,-9 -70,-27 -18,-18 -28,-41 -28,-69 0,-28 10,-51 29,-70 19,-18 42,-27 69,-27 27,0 50,8 70,26l-22 32c-8,-8 -16,-13 -23,-16 -7,-2 -15,-4 -23,-4 -16,0 -29,6 -40,16 -11,11 -16,25 -16,43 0,18 5,32 15,43 11,10 23,16 38,16 14,0 26,-3 36,-9l0 -51zm-238 -92l42 0 0 187 -42 0 -89 -117 0 117 -42 0 0 -187 39 0 92 121 0 -121zm-246 0l41 0 0 187 -41 0 0 -187zm-71 62c0,30 -12,49 -36,58l48 67 -52 0 -41 -60 -29 0 0 60 -42 0 0 -187 71 0c29,0 50,5 62,15 13,9 19,25 19,47zm-80 29c15,0 24,-2 29,-7 6,-4 8,-12 8,-22 0,-10 -2,-17 -8,-21 -5,-3 -15,-5 -28,-5l-31 0 0 55 30 0zm-140 -91l0 37 -93 0 0 39 83 0 0 35 -83 0 0 39 96 0 0 37 -138 0 0 -187 135 0zm-203 0l0 37 -94 0 0 39 84 0 0 35 -84 0 0 39 97 0 0 37 -138 0 0 -187 135 0zm-251 0l42 0 0 187 -42 0 -89 -117 0 117 -42 0 0 -187 39 0 92 121 0 -121zm-247 0l42 0 0 187 -42 0 0 -187zm-107 92l42 0 0 66c-19,21 -44,31 -77,31 -28,0 -51,-9 -69,-27 -19,-18 -28,-41 -28,-69 0,-28 9,-51 28,-70 19,-18 42,-27 69,-27 27,0 50,8 70,26l-22 32c-8,-8 -16,-13 -23,-16 -7,-2 -15,-4 -23,-4 -16,0 -29,6 -40,16 -11,11 -16,25 -16,43 0,18 5,32 15,43 11,10 23,16 38,16 14,0 26,-3 36,-9l0 -51zm-238 -92l42 0 0 187 -42 0 -89 -117 0 117 -42 0 0 -187 40 0 91 121 0 -121z"/>
  </g>
 </g>
</svg>
